<svg width="890" height="319" viewBox="0 0 890 319" fill="none" xmlns="http://www.w3.org/2000/svg">
<path d="M444.538 269.603C690.049 269.603 889.076 264.036 889.076 257.169C889.076 250.301 690.049 244.734 444.538 244.734C199.026 244.734 0 250.301 0 257.169C0 264.036 199.026 269.603 444.538 269.603Z" fill="#E6E6E6"/>
<path d="M481.05 122.451V107.788H407.736V108.705V122.451V240.67V255.333H422.399H481.05V240.67H422.399V122.451H481.05Z" fill="#3F3D56"/>
<path d="M516.791 107.788V255.333H590.105V107.788H516.791ZM575.442 240.67H531.453V122.451H575.442V240.67Z" fill="#6C63FF"/>
<path d="M313.344 240.67V108.705H298.681V240.67V255.333H313.344H371.995V240.67H313.344Z" fill="#6C63FF"/>
<path d="M265.69 122.451V107.788H192.376V108.705V122.451V173.771V188.434V240.67V255.333H207.039H265.69V240.67H207.039V188.434H265.69V173.771H207.039V122.451H265.69Z" fill="#3F3D56"/>
<path d="M839.372 122.451V107.788H766.058V108.705V122.451V173.771V188.434V240.67V255.333H780.721H839.372V240.67H780.721V188.434H839.372V173.771H780.721V122.451H839.372Z" fill="#6C63FF"/>
<path d="M142.889 108.705V229.89L104.228 191.23L104.14 191.319L104.058 191.237L64.535 230.76V108.247H49.872V254.875H64.535V251.496L104.147 211.884L142.889 250.627V255.333H157.552V108.705H142.889Z" fill="#3F3D56"/>
<path d="M717.488 108.705V112.083L677.876 151.695L639.133 112.953V108.247H624.47V254.875H639.133V133.689L677.794 172.35L677.883 172.261L677.964 172.342L717.488 132.819V255.333H732.15V108.705H717.488Z" fill="#3F3D56"/>
<path d="M335.076 18.3795C340.046 18.3795 344.076 14.3501 344.076 9.37952C344.076 4.40895 340.046 0.379517 335.076 0.379517C330.105 0.379517 326.076 4.40895 326.076 9.37952C326.076 14.3501 330.105 18.3795 335.076 18.3795Z" fill="#6C63FF"/>
<path d="M113.076 118.38C118.046 118.38 122.076 114.35 122.076 109.38C122.076 104.409 118.046 100.38 113.076 100.38C108.105 100.38 104.076 104.409 104.076 109.38C104.076 114.35 108.105 118.38 113.076 118.38Z" fill="#6C63FF"/>
<path d="M291.076 318.38C296.046 318.38 300.076 314.35 300.076 309.38C300.076 304.409 296.046 300.38 291.076 300.38C286.105 300.38 282.076 304.409 282.076 309.38C282.076 314.35 286.105 318.38 291.076 318.38Z" fill="#6C63FF"/>
<path d="M517.076 45.3795C522.046 45.3795 526.076 41.3501 526.076 36.3795C526.076 31.409 522.046 27.3795 517.076 27.3795C512.105 27.3795 508.076 31.409 508.076 36.3795C508.076 41.3501 512.105 45.3795 517.076 45.3795Z" fill="#6C63FF"/>
<path d="M782.076 310.38C787.046 310.38 791.076 306.35 791.076 301.38C791.076 296.409 787.046 292.38 782.076 292.38C777.105 292.38 773.076 296.409 773.076 301.38C773.076 306.35 777.105 310.38 782.076 310.38Z" fill="#6C63FF"/>
<path d="M791.076 74.3795C796.046 74.3795 800.076 70.3501 800.076 65.3795C800.076 60.409 796.046 56.3795 791.076 56.3795C786.105 56.3795 782.076 60.409 782.076 65.3795C782.076 70.3501 786.105 74.3795 791.076 74.3795Z" fill="#6C63FF"/>
<path d="M677.076 236.38C682.046 236.38 686.076 232.35 686.076 227.38C686.076 222.409 682.046 218.38 677.076 218.38C672.105 218.38 668.076 222.409 668.076 227.38C668.076 232.35 672.105 236.38 677.076 236.38Z" fill="#6C63FF"/>
</svg>
