<svg width="791" height="149" viewBox="0 0 791 149" fill="none" xmlns="http://www.w3.org/2000/svg">
<path d="M432.05 15.451V0.787994H358.736V1.705V15.451V133.67V148.333H373.399H432.05V133.67H373.399V15.451H432.05Z" fill="#3F3D56"/>
<path d="M467.791 0.78833V148.333H541.105V0.78833H467.791ZM526.442 133.67H482.453V15.4512H526.442V133.67Z" fill="#6C63FF"/>
<path d="M264.344 133.67V1.70502H249.681V133.67V148.333H264.344H322.995V133.67H264.344Z" fill="#6C63FF"/>
<path d="M216.69 15.451V0.787994H143.376V1.705V15.451V66.771V81.434V133.67V148.333H158.039H216.69V133.67H158.039V81.434H216.69V66.771H158.039V15.451H216.69Z" fill="#3F3D56"/>
<path d="M790.372 15.451V0.787994H717.058V1.705V15.451V66.771V81.434V133.67V148.333H731.721H790.372V133.67H731.721V81.434H790.372V66.771H731.721V15.451H790.372Z" fill="#6C63FF"/>
<path d="M93.889 1.70502V122.89L55.228 84.23L55.14 84.319L55.058 84.237L15.535 123.76V1.24701H0.872009V147.875H15.535V144.496L55.147 104.884L93.889 143.627V148.333H108.552V1.70502H93.889Z" fill="#3F3D56"/>
<path d="M668.488 1.70502V5.08301L628.876 44.695L590.133 5.95302V1.24701H575.47V147.875H590.133V26.689L628.794 65.35L628.883 65.261L628.964 65.342L668.488 25.819V148.333H683.15V1.70502H668.488Z" fill="#3F3D56"/>
</svg>
